# xmcd
#
# Track frame offsets: 
#        182
#        15512
#        31000
#        48982
#        61140
#        73170
#        89250
#        104395
#        116552
#        129097
#
# Disc length: 1893 seconds
#
# Revision: 3
# Processed by: cddbd v1.5.1PL0 Copyright (c) Steve Scherf et al.
# Submitted via: ExactAudioCopy v0.95a5
#
DISCID=7607630a
DTITLE=David Frizzell and Shelly West - Greatest Hits - Alone and Together
DYEAR=1994
DGENRE=Country
TTITLE0=David Frizzell and Shelly West - You're The Reason God Made Okla
TTITLE0=homa
TTITLE1=Shelly West - Flight 309 To Tennessee
TTITLE2=David Frizzell - I'm Gonna Hire A Wino To Decorate Our Home
TTITLE3=Shelly West - Another Motel Memory
TTITLE4=David Frizzell and Shelly West - A Texas State Of Mind
TTITLE5=David Frizzell and Shelly West - I Just Came Here To Dance
TTITLE6=David Frizzell - Lost My Baby Blues
TTITLE7=Shelly West - Jose Cuervo
TTITLE8=David Frizzell - Where Are You Spending Your Nights These Days
TTITLE9=David Frizzell and Shelly West - Another Honky-Tonk Night On Bro
TTITLE9=adway
EXTD=
EXTT0=
EXTT1=
EXTT2=
EXTT3=
EXTT4=
EXTT5=
EXTT6=
EXTT7=
EXTT8=
EXTT9=
PLAYORDER=
